<?xml version="1.0" encoding="utf-8"?>
<!-- Generator: Adobe Illustrator 16.0.0, SVG Export Plug-In . SVG Version: 6.00 Build 0)  -->
<!DOCTYPE svg PUBLIC "-//W3C//DTD SVG 1.1//EN" "http://www.w3.org/Graphics/SVG/1.1/DTD/svg11.dtd">
<svg version="1.1" id="Capa_1" xmlns="http://www.w3.org/2000/svg" xmlns:xlink="http://www.w3.org/1999/xlink" x="0px" y="0px"
	 width="1295.158px" height="271.785px" viewBox="5.99 17.909 1295.158 271.785"
	 enable-background="new 5.99 17.909 1295.158 271.785" xml:space="preserve">
<g>
	<path fill="#D14646" d="M70.002,283.078H5.99l84.754-134.283L10.103,19.519h65.8l47.006,85.832l48.297-85.832h63.655L154.22,146.65
		l85.648,136.429h-66.874l-50.08-89.866L70.002,283.078z"/>
	<path fill="#FFFFFF" d="M395.032,92.128c13.595,6.091,24.823,15.702,33.68,28.833c7.982,11.581,13.159,25.01,15.528,40.293
		c1.372,8.954,1.93,21.848,1.679,38.681H303.97c0.791,19.551,7.585,33.258,20.381,41.125c7.784,4.89,17.149,7.331,28.098,7.331
		c11.608,0,21.041-2.979,28.296-8.94c3.956-3.218,7.454-7.688,10.488-13.41h52.027c-1.372,11.563-7.669,23.307-18.892,35.225
		c-17.458,18.953-41.899,28.431-73.324,28.431c-25.938,0-48.822-7.993-68.65-23.979c-19.828-15.986-29.741-41.997-29.741-78.029
		c0-33.761,8.949-59.651,26.849-77.667c17.897-18.015,41.131-27.024,69.695-27.024C366.158,82.995,381.438,86.04,395.032,92.128z
		 M318.796,136.15c-7.202,7.423-11.726,17.479-13.575,30.168h87.794c-0.928-13.528-5.451-23.792-13.576-30.796
		c-8.125-7.004-18.199-10.508-30.224-10.508C336.135,125.014,325.996,128.727,318.796,136.15z"/>
	<path fill="#FFFFFF" d="M579.957,83.62c0.654,0.062,2.115,0.151,4.381,0.269V136.1c-3.218-0.357-6.079-0.595-8.583-0.715
		c-2.503-0.118-4.532-0.179-6.08-0.179c-20.504,0-34.272,6.677-41.304,20.026c-3.934,7.51-5.9,19.074-5.9,34.688v93.158h-51.317
		V88.18h48.635v33.973c7.868-12.991,14.721-21.873,20.563-26.642c9.536-7.985,21.932-11.98,37.192-11.98
		C578.496,83.531,579.3,83.562,579.957,83.62z"/>
	<path fill="#FFFFFF" d="M730.779,158.093c-0.955-7.27-3.405-13.827-7.348-19.668c-5.738-7.868-14.64-11.801-26.706-11.801
		c-17.21,0-28.98,8.524-35.312,25.569c-3.347,9.038-5.018,21.046-5.018,36.026c0,14.271,1.671,25.745,5.018,34.423
		c6.094,16.213,17.564,24.317,34.414,24.317c11.95,0,20.435-3.218,25.452-9.655c5.018-6.437,8.066-14.779,9.142-25.032h52.032
		c-1.195,15.497-6.803,30.159-16.824,43.985c-15.992,22.292-39.676,33.438-71.056,33.438c-31.383,0-54.472-9.298-69.268-27.895
		c-14.796-18.596-22.194-42.706-22.194-72.332c0-33.431,8.172-59.447,24.519-78.043c16.347-18.596,38.898-27.894,67.658-27.894
		c24.46,0,44.476,5.484,60.048,16.45c15.57,10.969,24.787,30.338,27.654,58.112H730.779z"/>
	<path fill="#FFFFFF" d="M870.248,64.935h-51.675V17.909h51.675V64.935z M818.573,88.18h51.675v194.898h-51.675V88.18z"/>
	<path fill="#FFFFFF" d="M959.114,220.854c1.079,9.061,3.414,15.498,7.008,19.312c6.347,6.794,18.084,10.191,35.213,10.191
		c10.061,0,18.057-1.489,23.985-4.47c5.929-2.979,8.893-7.448,8.893-13.41c0-5.723-2.389-10.072-7.163-13.054
		c-4.777-2.978-22.549-8.104-53.313-15.377c-22.146-5.481-37.75-12.338-46.808-20.563c-9.061-8.105-13.589-19.786-13.589-35.046
		c0-17.998,7.076-33.465,21.232-46.4c14.156-12.933,34.077-19.4,59.761-19.4c24.368,0,44.229,4.858,59.578,14.573
		c15.35,9.717,24.161,26.494,26.433,50.334h-50.959c-0.719-6.555-2.57-11.74-5.558-15.556c-5.621-6.912-15.185-10.371-28.689-10.371
		c-11.117,0-19.035,1.729-23.756,5.185c-4.722,3.459-7.083,7.51-7.083,12.159c0,5.842,2.509,10.075,7.532,12.695
		c5.018,2.744,22.753,7.451,53.206,14.126c20.3,4.769,35.519,11.98,45.651,21.635c10.013,9.775,15.02,21.993,15.02,36.655
		c0,19.311-7.197,35.076-21.591,47.294s-36.639,18.328-66.736,18.328c-30.698,0-53.362-6.468-67.994-19.4
		c-14.634-12.934-21.948-29.414-21.948-49.44H959.114z"/>
	<path fill="#FFFFFF" d="M1250.26,92.128c13.595,6.091,24.823,15.702,33.68,28.833c7.982,11.581,13.159,25.01,15.528,40.293
		c1.372,8.954,1.931,21.848,1.68,38.681h-141.95c0.791,19.551,7.586,33.258,20.382,41.125c7.783,4.89,17.148,7.331,28.098,7.331
		c11.608,0,21.04-2.979,28.296-8.94c3.956-3.218,7.454-7.688,10.488-13.41h52.026c-1.372,11.563-7.669,23.307-18.892,35.225
		c-17.459,18.953-41.899,28.431-73.324,28.431c-25.938,0-48.822-7.993-68.65-23.979s-29.74-41.997-29.74-78.029
		c0-33.761,8.948-59.651,26.849-77.667c17.897-18.015,41.131-27.024,69.695-27.024C1221.386,82.995,1236.666,86.04,1250.26,92.128z
		 M1174.025,136.15c-7.202,7.423-11.726,17.479-13.575,30.168h87.794c-0.928-13.528-5.451-23.792-13.575-30.796
		c-8.125-7.004-18.199-10.508-30.224-10.508C1191.364,125.014,1181.225,128.727,1174.025,136.15z"/>
</g>
</svg>
